<?xml version="1.0" encoding="UTF-8"?> <!-- Generator: Adobe Illustrator 24.0.1, SVG Export Plug-In . SVG Version: 6.00 Build 0) --> <svg xmlns="http://www.w3.org/2000/svg" xmlns:xlink="http://www.w3.org/1999/xlink" id="Layer_1" height="32px" width="146px" x="0px" y="0px" viewBox="0 0 330.89 72" style="enable-background:new 0 0 330.89 72;" xml:space="preserve"> <style type="text/css"> .st0{fill:#FFFFFF;} </style> <g id="Page-1_5_"> <g transform="translate(-1280.000000, -869.000000)" width="97.7" height="100" viewBox="0 0 977 1000"> <path id="Combined-Shape_5_" class="st0" d="M1491.26,869c7.8,0,13.41,1.22,18.49,3.93c4.92,2.63,8.8,6.51,11.43,11.43 c2.71,5.08,3.93,10.68,3.93,18.49v4.3c0,7.8-1.22,13.41-3.93,18.49c-2.63,4.92-6.51,8.8-11.43,11.43 c-5.08,2.71-10.69,3.93-18.49,3.93h-4.3c-7.8,0-13.41-1.22-18.49-3.93c-4.92-2.63-8.8-6.51-11.43-11.43 c-2.71-5.08-3.93-10.68-3.93-18.49v-4.3c0-7.8,1.22-13.41,3.93-18.49c2.63-4.92,6.51-8.8,11.43-11.43 c5.08-2.71,10.69-3.93,18.49-3.93H1491.26z M1294.16,869.01c5.7,0,10.85,3.42,13.06,8.68l0,0l21.66,51.57 c1.35,3.21,5.04,4.71,8.24,3.37c2.34-0.98,3.86-3.27,3.86-5.8l0,0v-56.31h7.87v56.31c0,5.7-3.42,10.85-8.68,13.06 c-7.21,3.03-15.51-0.36-18.54-7.57l0,0l-21.66-51.57c-0.98-2.34-3.27-3.86-5.8-3.86c-3.48,0-6.3,2.82-6.3,6.3l0,0v56.31H1280 v-56.31C1280,875.35,1286.34,869.01,1294.16,869.01z M1556.2,869.01c5.7,0,10.85,3.42,13.06,8.68l0,0l21.66,51.57 c1.35,3.21,5.04,4.71,8.24,3.37c2.34-0.98,3.86-3.27,3.86-5.8l0,0v-56.31h7.87v56.31c0,5.7-3.42,10.85-8.68,13.06 c-7.21,3.03-15.51-0.36-18.54-7.57l0,0L1562,880.74c-0.98-2.34-3.27-3.86-5.8-3.86c-3.48,0-6.3,2.82-6.3,6.3l0,0v56.31h-7.87 v-56.31C1542.03,875.35,1548.37,869.01,1556.2,869.01z M1436.2,931.56v7.87h-68.85v-7.87H1436.2z M1491.58,876.87h-4.94 c-6.4,0.03-10.67,0.98-14.46,3c-3.55,1.9-6.31,4.66-8.2,8.2c-2.03,3.79-2.97,8.05-3,14.46v4.94c0.03,6.4,0.98,10.67,3,14.46 c1.9,3.55,4.66,6.31,8.2,8.2c3.85,2.06,8.2,3,14.78,3h4.3c6.58,0,10.93-0.94,14.78-3c3.55-1.9,6.31-4.66,8.2-8.2 c2.06-3.85,3-8.2,3-14.78v-4.3c0-6.58-0.94-10.93-3-14.78c-1.9-3.55-4.66-6.31-8.2-8.2 C1502.25,877.85,1497.99,876.9,1491.58,876.87z M1436.2,901.07v7.87h-68.85v-7.87H1436.2z M1436.2,870.57v7.87h-68.85v-7.87 H1436.2z"></path> </g> </g> </svg> 